<svg width="19" height="13" viewBox="0 0 19 13" fill="none" xmlns="http://www.w3.org/2000/svg">
<path d="M15.0416 3.33335L11.875 6.50002H14.25C14.25 9.12044 12.1204 11.25 9.49996 11.25C8.70038 11.25 7.94038 11.0521 7.28329 10.6959L6.12746 11.8517C7.10121 12.4692 8.25704 12.8334 9.49996 12.8334C12.9991 12.8334 15.8333 9.99919 15.8333 6.50002H18.2083L15.0416 3.33335ZM4.74996 6.50002C4.74996 3.8796 6.87954 1.75002 9.49996 1.75002C10.2995 1.75002 11.0595 1.94794 11.7166 2.30419L12.8725 1.14835C11.8987 0.530854 10.7429 0.166687 9.49996 0.166687C6.00079 0.166687 3.16663 3.00085 3.16663 6.50002H0.791626L3.95829 9.66669L7.12496 6.50002H4.74996Z" fill="black"/>
</svg>
