<?xml version="1.0" encoding="UTF-8" standalone="no"?>
<!-- Generator: Adobe Illustrator 19.0.0, SVG Export Plug-In . SVG Version: 6.00 Build 0)  -->

<svg
   xmlns:dc="http://purl.org/dc/elements/1.1/"
   xmlns:cc="http://creativecommons.org/ns#"
   xmlns:rdf="http://www.w3.org/1999/02/22-rdf-syntax-ns#"
   xmlns:svg="http://www.w3.org/2000/svg"
   xmlns="http://www.w3.org/2000/svg"
   xmlns:sodipodi="http://sodipodi.sourceforge.net/DTD/sodipodi-0.dtd"
   xmlns:inkscape="http://www.inkscape.org/namespaces/inkscape"
   version="1.1"
   id="Capa_1"
   x="0px"
   y="0px"
   viewBox="0 0 512 512"
   style="enable-background:new 0 0 512 512;"
   xml:space="preserve"
   sodipodi:docname="smile (copy).svg"
   inkscape:version="0.92.5 (2060ec1f9f, 2020-04-08)"><metadata
   id="metadata58"><rdf:RDF><cc:Work
       rdf:about=""><dc:format>image/svg+xml</dc:format><dc:type
         rdf:resource="http://purl.org/dc/dcmitype/StillImage" /></cc:Work></rdf:RDF></metadata><defs
   id="defs56" /><sodipodi:namedview
   pagecolor="#ffffff"
   bordercolor="#666666"
   borderopacity="1"
   objecttolerance="10"
   gridtolerance="10"
   guidetolerance="10"
   inkscape:pageopacity="0"
   inkscape:pageshadow="2"
   inkscape:window-width="1920"
   inkscape:window-height="983"
   id="namedview54"
   showgrid="false"
   inkscape:zoom="0.4609375"
   inkscape:cx="111.72881"
   inkscape:cy="256"
   inkscape:window-x="0"
   inkscape:window-y="27"
   inkscape:window-maximized="1"
   inkscape:current-layer="Capa_1" />
<path
   style="fill:#303C42;"
   d="M256,0C114.844,0,0,114.844,0,256s114.844,256,256,256s256-114.844,256-256S397.156,0,256,0z"
   id="path2" />
<path
   style="fill:#FED600;"
   d="M256,490.667C126.604,490.667,21.333,385.396,21.333,256S126.604,21.333,256,21.333  S490.667,126.604,490.667,256S385.396,490.667,256,490.667z"
   id="path4" />
<path
   style="opacity:0.1;fill:#010101;enable-background:new    ;"
   d="M407.888,77.445C442.798,118.421,464,171.411,464,229.333  C464,358.729,358.729,464,229.333,464c-57.922,0-110.913-21.202-151.888-56.112c43.077,50.563,107.081,82.779,178.555,82.779  c129.396,0,234.667-105.271,234.667-234.667C490.667,184.526,458.451,120.522,407.888,77.445z"
   id="path6" />
<g
   id="g14">
	<path
   style="fill:#303c42"
   d="m 393.385,426.22696 c -5.802,1.385 -11.5,-2.177 -12.844,-7.906 -13.75,-57.885 -64.958,-98.313 -124.542,-98.313 -59.656,0 -110.885,40.49 -124.573,98.448 -1.365,5.75 -7.146,9.24 -12.833,7.938 -5.74,-1.354 -9.292,-7.104 -7.938,-12.833 15.979,-67.646 75.75,-114.885 145.344,-114.885 69.51,0 129.26,47.167 145.292,114.708 1.365,5.739 -2.176,11.489 -7.906,12.843 z"
   id="path8"
   inkscape:connector-curvature="0" />
	<path
   style="fill:#303c42"
   d="m 213.336,160 c 0,23.531 -19.135,42.667 -42.667,42.667 -23.532,0 -42.667,-19.135 -42.667,-42.667 0,-5.896 -4.771,-10.667 -10.667,-10.667 -5.896,0 -10.667,4.771 -10.667,10.667 0,35.292 28.708,64 64,64 35.292,0 64,-28.708 64,-64 0,-5.896 -4.771,-10.667 -10.667,-10.667 -5.896,0 -10.665,4.771 -10.665,10.667 z"
   id="path10"
   inkscape:connector-curvature="0" />
	<path
   style="fill:#303c42"
   d="m 341.334,224 c 35.292,0 64,-28.708 64,-64 0,-5.896 -4.771,-10.667 -10.667,-10.667 -5.896,0 -10.667,4.771 -10.667,10.667 0,23.531 -19.135,42.667 -42.667,42.667 -23.532,0 -42.666,-19.136 -42.666,-42.667 0,-5.896 -4.771,-10.667 -10.667,-10.667 -5.896,0 -10.667,4.771 -10.667,10.667 10e-4,35.291 28.709,64 64.001,64 z"
   id="path12"
   inkscape:connector-curvature="0" />
</g>
<linearGradient
   id="SVGID_1_"
   gradientUnits="userSpaceOnUse"
   x1="-45.5784"
   y1="639.555"
   x2="-23.8278"
   y2="629.4138"
   gradientTransform="matrix(21.3333 0 0 -21.3333 996.3334 13791.667)">
	<stop
   offset="0"
   style="stop-color:#FFFFFF;stop-opacity:0.2"
   id="stop16" />
	<stop
   offset="1"
   style="stop-color:#FFFFFF;stop-opacity:0"
   id="stop18" />
</linearGradient>
<path
   style="fill:url(#SVGID_1_);"
   d="M256,0C114.844,0,0,114.844,0,256s114.844,256,256,256s256-114.844,256-256S397.156,0,256,0z"
   id="path21" />
<g
   id="g23">
</g>
<g
   id="g25">
</g>
<g
   id="g27">
</g>
<g
   id="g29">
</g>
<g
   id="g31">
</g>
<g
   id="g33">
</g>
<g
   id="g35">
</g>
<g
   id="g37">
</g>
<g
   id="g39">
</g>
<g
   id="g41">
</g>
<g
   id="g43">
</g>
<g
   id="g45">
</g>
<g
   id="g47">
</g>
<g
   id="g49">
</g>
<g
   id="g51">
</g>
</svg>